<svg id="Layer_1" data-name="Layer 1" xmlns="http://www.w3.org/2000/svg" viewBox="0 0 158.48 35.48"><defs><style>.cls-1{fill:#fff;}</style></defs><title>bjorneposten-logo</title><path class="cls-1" d="M18.88,11.76A8.2,8.2,0,0,0,14,10.82a7.23,7.23,0,0,0,3.7-6.27Q17.7.68,12.41,0h-9L0,4.45l.71.43,1.12-1H6l-1.49.8q.33,18.18-.62,19L1.78,26.4l.32.49H13a43.72,43.72,0,0,0,5-5q3.66-3.11,3.3-6A5.11,5.11,0,0,0,18.88,11.76Zm-4.52-5.7q.54,3.08-1.65,4.5H8.49v-7C12,3.16,14,4,14.36,6.06Zm3.13,13.57c-.46,1.61-1.11,2.6-2,3H5.62l2.74-1.91V14.55H13a5.08,5.08,0,0,1,3.85,1.29A3.58,3.58,0,0,1,17.49,19.63Z"/><path class="cls-1" d="M24.13.55,20.44,3.94c1.47.26,2.32,1.34,2.53,3.24l3.59-3A3.37,3.37,0,0,0,24.13.55Z"/><path class="cls-1" d="M24.38,8.41,19.8,12.55l.49.79c1.32-1.19,2-.48,2,2.13v8.18Q22.44,30,20,33.12l.31.63A11.1,11.1,0,0,0,26,23.9V12C25.94,9.85,25.41,8.66,24.38,8.41Z"/><path class="cls-1" d="M47.79,11.55c.71-.07,1.44.63,2.21,2.09L53.48,11a5,5,0,0,0-2.82-2.38,2.61,2.61,0,0,0-2.54.6,7.85,7.85,0,0,0-1.76,2.47,3.22,3.22,0,0,0-3.1-3l-4,4.91.55.4c.86-1.15,1.55-1.59,2.06-1.34s.73,1.13.65,2.64v8.25c.27,2,1.11,3.07,2.52,3.37L49,23l-.3-.4c-1.38.86-2.08.65-2.11-.65V14C46.69,12.46,47.09,11.64,47.79,11.55Z"/><path class="cls-1" d="M67,23.77c-.47-.06-.7-.86-.69-2.39v-8a4.45,4.45,0,0,0-1.75-3.87,4.74,4.74,0,0,0-3.48-.83l-3.76,3.56C57,10.08,56,8.87,54.24,8.63l-3.81,3.81.48.61L52.11,12c1.08,0,1.57,1.16,1.46,3.32v8.31c0,2,.84,3.14,2.41,3.41l3.83-3.77-.4-.41-1.18,1c-.54-.24-.78-1.25-.73-3.05v-7.6L59,11.93c2.33-.06,3.5,1.32,3.53,4.16v7.44c0,2,.74,3.11,2.27,3.41l3.85-3.73-.4-.53Z"/><path class="cls-1" d="M76.55,23.19c-1.28.27-2.58-.6-3.9-2.59A13.14,13.14,0,0,1,70.36,15c-.21-1.76.24-2.77,1.34-3.05a2.24,2.24,0,0,1,2.49.7,2.35,2.35,0,0,1,.52,2.21A4.58,4.58,0,0,1,72.91,17l-1.48,1.14L72,19l5.09-4.08,1.6-1.43c.23-1.84-.15-3.13-1.15-3.86a4.73,4.73,0,0,0-3.35-.91,10.72,10.72,0,0,0-3.77,2.94q-4.69,4.5-3.34,8.28a14.79,14.79,0,0,0,3.61,5.89c1.49,1.41,2.81,1.62,4,.65a26.69,26.69,0,0,0,5.49-5.64l-.5-.44A14.33,14.33,0,0,1,76.55,23.19Z"/><path class="cls-1" d="M92.07,9.93C90.18,8.44,88.88,8,88.18,8.59l-3.44,3.1c-.53-1.9-1.53-3-3-3.28L78.9,12l-1,1.11.61.69,1.42-1.52q1.2,0,1.32,4.93v10a9,9,0,0,1-2.88,6.3l.28.31a3.06,3.06,0,0,1,3,.69,4.53,4.53,0,0,0,3.42.93l3.1-3.87-.55-.16c-1.47.86-3.39.5-5.75-1.1a4.3,4.3,0,0,0,3-1.3V25.19a3.39,3.39,0,0,0,4.06,0,18.84,18.84,0,0,0,4-4.31A9.51,9.51,0,0,0,95,15,6.71,6.71,0,0,0,92.07,9.93ZM89.93,22.05c-1.49.41-3-.28-4.38-2.05l-.81,1.12V13.19l1.5-1.26c.89-.24,1.91.2,3.08,1.33a8.75,8.75,0,0,1,2.29,4.94C92,20.36,91.41,21.65,89.93,22.05Z"/><path class="cls-1" d="M106.37,11a7.82,7.82,0,0,0-3.45-2.26,3.89,3.89,0,0,0-2.52.18,15.22,15.22,0,0,0-3.3,2.79,9.6,9.6,0,0,0-2.64,5.87,8.19,8.19,0,0,0,2,6.47c1.62,1.92,3.05,3,4.27,3.11A3.92,3.92,0,0,0,104,26.08a19.62,19.62,0,0,0,3.21-4.41,9.66,9.66,0,0,0,1.49-5.94A7.74,7.74,0,0,0,106.37,11Zm-1.3,11.22a3.09,3.09,0,0,1-3,1c-1.31-.16-2.52-1.26-3.62-3.32a8.88,8.88,0,0,1-1.3-5.32,2.61,2.61,0,0,1,2.31-2.48c1.28-.21,2.62.4,4,1.85a7.77,7.77,0,0,1,2.36,4.6,4.86,4.86,0,0,1-.75,3.65Z"/><path class="cls-1" d="M114.91,14.55q-3.69-.87-4-2.14c-.22-.84.17-1.39,1.18-1.63a4.88,4.88,0,0,1,3.21.41c1.14.51,1.28,1.37.43,2.57l.32.06,3-3.27a4.4,4.4,0,0,0-2-2,4.23,4.23,0,0,0-2.8-.31,8.46,8.46,0,0,0-2.84,1.19,10.23,10.23,0,0,0-2.09,1.74,4.92,4.92,0,0,0-1,2.63,3.73,3.73,0,0,0,.94,3.05c.77.85,2.29,1.56,4.54,2.13s3.63,1.13,4.1,1.67a1.69,1.69,0,0,1,.49,1.62,1.49,1.49,0,0,1-.87,1.09,4.16,4.16,0,0,1-2.16,0,9.47,9.47,0,0,1-2.88-.95,6.5,6.5,0,0,1-2.12-1.59,1.7,1.7,0,0,1,0-2.11l-.25-.33-2.73,2.78a3,3,0,0,0,.67,2.66,7.56,7.56,0,0,0,2.57,2.23,8.05,8.05,0,0,0,3.33.85,4.12,4.12,0,0,0,3-1,14,14,0,0,0,2.47-3.12,6.47,6.47,0,0,0,1.22-3.51,4.32,4.32,0,0,0-1.13-2.7Q118.6,15.42,114.91,14.55Z"/><path class="cls-1" d="M125.38,12.18h3.2l2.84-3-.21-.57h-6.08V4.07a3.89,3.89,0,0,1,1.46-2.7l-.4-.4a8.1,8.1,0,0,0-2.64,2,5.9,5.9,0,0,0-2,3.73V8.63h-1l-4.87,5.12.69.46c.5-1.3,3.87-2.13,5.22-1.78v10a6.46,6.46,0,0,0,3.74,4.75l5.29-4.63-.71-1q-3,3.56-4.62-.54V12.18Z"/><path class="cls-1" d="M138.79,23.19c-1.28.27-2.58-.6-3.9-2.59A13.14,13.14,0,0,1,132.6,15c-.21-1.76.24-2.77,1.34-3.05a2.24,2.24,0,0,1,2.49.7,2.37,2.37,0,0,1,.49,2.21,4.58,4.58,0,0,1-1.8,2.14l-1.48,1.14.59.85,5.09-4.08L141,13.46c.23-1.84-.15-3.13-1.15-3.86a4.73,4.73,0,0,0-3.35-.91,10.43,10.43,0,0,0-3.77,2.94q-4.71,4.5-3.34,8.28A14.57,14.57,0,0,0,133,25.8c1.49,1.41,2.81,1.62,4,.65a27.19,27.19,0,0,0,5.49-5.64l-.5-.44A14.83,14.83,0,0,1,138.79,23.19Z"/><path class="cls-1" d="M158,22.68l-1.17,1.09c-.47-.06-.7-.86-.69-2.39v-8a4.51,4.51,0,0,0-1.73-3.92A4.76,4.76,0,0,0,151,8.63l-3.83,3.61c-.29-2.16-1.31-3.37-3.08-3.61l-3.81,3.81.48.61L142,12c1.08,0,1.57,1.16,1.46,3.32v8.31c0,2,.84,3.14,2.41,3.41l3.83-3.77-.4-.41-1.18,1c-.54-.24-.78-1.25-.73-3.05v-7.6l1.5-1.26c2.32-.06,3.5,1.32,3.53,4.16v7.44c0,2,.74,3.11,2.27,3.41l3.83-3.73Z"/><path class="cls-1" d="M37.94,7.34,36.56,9.73a5.38,5.38,0,0,0-2-1A3.89,3.89,0,0,0,32,8.91a15.22,15.22,0,0,0-3.3,2.79A9.59,9.59,0,0,0,26,17.55,8.2,8.2,0,0,0,28,24l.15.17-1.78,3.08,2.6,1.5,1.42-2.46a4.39,4.39,0,0,0,1.89.82,3.9,3.9,0,0,0,3.23-1.06,19.58,19.58,0,0,0,3.24-4.42,9.66,9.66,0,0,0,1.49-5.94,7.66,7.66,0,0,0-1.5-3.83l1.76-3ZM30.06,19.88a8.79,8.79,0,0,1-1.33-5.33A2.61,2.61,0,0,1,31,12a4.2,4.2,0,0,1,3.43,1.28l-4.07,7A3,3,0,0,1,30.06,19.88Zm7.34-1.33a5,5,0,0,1-.74,3.67,3.14,3.14,0,0,1-3,1,3,3,0,0,1-1.22-.45l4-7A7.25,7.25,0,0,1,37.4,18.55Z"/></svg>